<svg id="Capa_1" enable-background="new 0 0 510.667 510.667" height="512" viewBox="0 0 510.667 510.667" width="512" xmlns="http://www.w3.org/2000/svg"><g id="XMLID_496_"><path id="XMLID_599_" d="m489.333 308.747h-18v-254h-46v-27.58h-30v27.58h-206v-54.747h-120v54.747h-30v254h-18v141.92h69v60h330v-60h69zm-390-278.747h60v24.747h-60zm-30 54.747h372v224h-372zm321 395.92h-270v-84h30.45v57h209.1v-57h30.45zm-209.549-84h149.1v27h-149.1zm278.549 24h-39v-24h12v-30h-354v30h12v24h-39v-81.92h408z"/><path id="XMLID_619_" d="m255.333 111.247c-47.421 0-86 38.58-86 86s38.579 86 86 86 86-38.58 86-86-38.579-86-86-86zm0 142c-30.879 0-56-25.122-56-56s25.121-56 56-56 56 25.122 56 56-25.121 56-56 56z"/><path id="XMLID_620_" d="m255.334 182.247c-7.846 0-15.363 6.899-15 15 .364 8.127 6.591 15 15 15 7.846 0 15.363-6.899 15-15-.364-8.127-6.591-15-15-15z"/><path id="XMLID_621_" d="m359.333 116.667h51v30h-51z"/></g></svg>