<svg height="512" viewBox="0 0 64 64" width="512" xmlns="http://www.w3.org/2000/svg"><g id="Illustration-Design-Layer-Graphic_Editor-Computer" data-name="Illustration-Design-Layer-Graphic Editor-Computer"><path d="m22 23a1 1 0 0 0 .684.948l3.155 1.052-3.155 1.052a1 1 0 0 0 0 1.9l12 4a.986.986 0 0 0 .632 0l12-4a1 1 0 0 0 0-1.9l-3.155-1.052 3.155-1.052a1 1 0 0 0 0-1.9l-3.155-1.048 3.155-1.052a1 1 0 0 0 0-1.9l-12-4a.991.991 0 0 0 -.632 0l-12 4a1 1 0 0 0 0 1.9l3.155 1.052-3.155 1.052a1 1 0 0 0 -.684.948zm21.838 4-8.838 2.946-8.838-2.946 2.838-.946 5.684 1.894a.986.986 0 0 0 .632 0l5.684-1.894zm-8.838-10.946 8.838 2.946-8.838 2.946-8.838-2.946zm-.316 7.894a.986.986 0 0 0 .632 0l5.684-1.894 2.838.946-8.838 2.946-8.838-2.946 2.838-.946z"/><path d="m14 5h2v2h-2z"/><path d="m18 5h2v2h-2z"/><path d="m22 5h2v2h-2z"/><path d="m56.31 11.25-1.33 1.5a2.992 2.992 0 0 1 1.02 2.25v25h-2v-35a3.009 3.009 0 0 0 -3-3h-38a3.009 3.009 0 0 0 -3 3v35h-2v-25a2.992 2.992 0 0 1 1.02-2.25l-1.33-1.5a5.029 5.029 0 0 0 -1.69 3.75v30a5 5 0 0 0 5 5h12.87l-.75 6h-2.12a2.006 2.006 0 0 0 -2 2v2a2.006 2.006 0 0 0 2 2h22a2.006 2.006 0 0 0 2-2v-2a2.006 2.006 0 0 0 -2-2h-2.12l-.75-6h12.87a5 5 0 0 0 5-5v-30a5.029 5.029 0 0 0 -1.69-3.75zm-44.31-6.25a1 1 0 0 1 1-1h38a1 1 0 0 1 1 1v3h-40zm40 5v30h-34v-30zm-40 0h4v30h-4zm31 48v2h-22v-2zm-17.87-2 .75-6h12.24l.75 6zm30.87-11a3.009 3.009 0 0 1 -3 3h-42a3.009 3.009 0 0 1 -3-3v-3h48z"/><path d="m50 44h2v2h-2z"/><path d="m32 34h2v2h-2z"/><path d="m36 34h2v2h-2z"/><path d="m40 34h2v2h-2z"/><path d="m28 34h2v2h-2z"/></g></svg>