<svg id="Capa_1" enable-background="new 0 0 512 512" height="512" viewBox="0 0 512 512" width="512" xmlns="http://www.w3.org/2000/svg"><g><path d="m15 512h482c8.284 0 15-6.716 15-15v-482c0-8.284-6.716-15-15-15h-482c-8.284 0-15 6.716-15 15v482c0 8.284 6.716 15 15 15zm15-301h33.58c4.527 12.764 14.656 22.893 27.42 27.42v77.58c0 8.284 6.716 15 15 15h135v151h-30v-76c0-8.284-6.716-15-15-15h-47.58c-6.192-17.459-22.865-30-42.42-30-24.813 0-45 20.187-45 45s20.187 45 45 45c19.555 0 36.228-12.541 42.42-30h32.58v61h-151zm76 0c-8.271 0-15-6.729-15-15s6.729-15 15-15 15 6.729 15 15-6.729 15-15 15zm15 195c0 8.271-6.729 15-15 15s-15-6.729-15-15 6.729-15 15-15 15 6.729 15 15zm-60-376v76c0 8.284 6.716 15 15 15h107.58c6.192 17.459 22.865 30 42.42 30 24.813 0 45-20.187 45-45s-20.187-45-45-45c-19.555 0-36.228 12.541-42.42 30h-92.58v-61h210v106c0 8.284 6.716 15 15 15h60c8.284 0 15-6.716 15-15s-6.716-15-15-15h-45v-91h90v31h-45c-8.284 0-15 6.716-15 15s6.716 15 15 15h45v120h-92.58c-6.192-17.459-22.865-30-42.42-30-24.813 0-45 20.187-45 45s20.187 45 45 45c19.555 0 36.228-12.541 42.42-30h107.58c8.284 0 15-6.716 15-15v-196h31v271h-136c-8.284 0-15 6.716-15 15v47.58c-17.459 6.192-30 22.865-30 42.42 0 24.813 20.187 45 45 45s45-20.187 45-45c0-19.555-12.541-36.228-30-42.42v-32.58h121v151h-31v-106c0-8.284-6.716-15-15-15s-15 6.716-15 15v106h-150v-166c0-8.284-6.716-15-15-15h-45v-105c0-8.284-6.716-15-15-15s-15 6.716-15 15v105h-60v-62.58c17.459-6.192 30-22.865 30-42.42 0-24.813-20.187-45-45-45-19.555 0-36.228 12.541-42.42 30h-33.58v-151zm150 76c0-8.271 6.729-15 15-15s15 6.729 15 15-6.729 15-15 15-15-6.729-15-15zm90 120c0 8.271-6.729 15-15 15s-15-6.729-15-15 6.729-15 15-15 15 6.729 15 15zm45 165c8.271 0 15 6.729 15 15s-6.729 15-15 15-15-6.729-15-15 6.729-15 15-15z"/></g></svg>