<svg height="512pt" viewBox="0 0 512 512" width="512pt" xmlns="http://www.w3.org/2000/svg"><path d="m456 88h-88v-32c-.035156-30.914062-25.085938-55.9648438-56-56h-112c-30.914062.0351562-55.964844 25.085938-56 56v32h-88c-30.914062.035156-55.9648438 25.085938-56 56v280c.0351562 30.914062 25.085938 55.964844 56 56h8v32h96v-32h192v32h96v-32h8c30.914062-.035156 55.964844-25.085938 56-56v-280c-.035156-30.914062-25.085938-55.964844-56-56zm-88 72 16 12v88.6875l-32 32v51.3125h-16v-60.6875l32-32zm-208-104c.027344-22.082031 17.917969-39.972656 40-40h112c22.082031.027344 39.972656 17.917969 40 40v32h-16v-32c0-13.253906-10.746094-24-24-24h-112c-13.253906 0-24 10.746094-24 24v32h-16zm160 0v32h-128v-32c0-4.417969 3.582031-8 8-8h112c4.417969 0 8 3.582031 8 8zm-304 104h113.136719c4.027343 15.601562 19.03125 25.777344 35.015625 23.746094s27.96875-15.632813 27.96875-31.746094-11.984375-29.714844-27.96875-31.746094-30.988282 8.144532-35.015625 23.746094h-113.136719c.027344-22.082031 17.917969-39.972656 40-40h200v28.6875l-48 48v35.3125h-59.3125l-16.6875 16.664062h-116zm128-8c0-8.835938 7.164062-16 16-16s16 7.164062 16 16-7.164062 16-16 16-16-7.164062-16-16zm-128 96.664062h100l-31.3125 31.335938h-68.6875zm128 247.335938h-64v-16h64zm288 0h-64v-16h64zm64-72c.003906 2.6875-.265625 5.367188-.800781 8h-156.238281l-37.359376-32h194.398438zm0-40h-361.136719c-4.027343-15.601562-19.03125-25.777344-35.015625-23.746094s-27.96875 15.632813-27.96875 31.746094 11.984375 29.714844 27.96875 31.746094 30.988282-8.144532 35.015625-23.746094h142.175781l56 48h154.753907c-7.492188 10.035156-19.269531 15.964844-31.792969 16h-400c-22.082031-.027344-39.972656-17.917969-40-40v-96h97.136719c4.027343 15.601562 19.03125 25.777344 35.015625 23.746094s27.96875-15.632813 27.96875-31.746094-11.984375-29.714844-27.96875-31.746094-30.988282 8.144532-35.015625 23.746094h-97.136719v-16h75.3125l64-64h109.824219c4.027343 15.601562 19.03125 25.777344 35.015625 23.746094s27.96875-15.632813 27.96875-31.746094-11.984375-29.714844-27.96875-31.746094-30.988282 8.144532-35.015625 23.746094h-41.136719v-28.6875l48-48v-35.3125h80v140.6875l-32 32v67.3125h-4.6875l-32-32h-28.449219c-4.027343-15.601562-19.03125-25.777344-35.015625-23.746094s-27.96875 15.632813-27.96875 31.746094 11.984375 29.714844 27.96875 31.746094 30.988282-8.144532 35.015625-23.746094h21.824219l32 32h187.3125zm-376 8c0 8.835938-7.164062 16-16 16s-16-7.164062-16-16 7.164062-16 16-16 16 7.164062 16 16zm8-72c0-8.835938 7.164062-16 16-16s16 7.164062 16 16-7.164062 16-16 16-16-7.164062-16-16zm152-96c0-8.835938 7.164062-16 16-16s16 7.164062 16 16-7.164062 16-16 16-16-7.164062-16-16zm-40 96c0 8.835938-7.164062 16-16 16s-16-7.164062-16-16 7.164062-16 16-16 16 7.164062 16 16zm256 24h-128v-44.6875l32-32v-103.3125l-32-24v-36h48v83.3125l24 24v37.824219c-15.601562 4.027343-25.777344 19.03125-23.746094 35.015625s15.632813 27.96875 31.746094 27.96875 29.714844-11.984375 31.746094-27.96875-8.144532-30.988282-23.746094-35.015625v-44.449219l-24-24v-76.6875h24c22.082031.027344 39.972656 17.917969 40 40zm-48-80c8.835938 0 16 7.164062 16 16s-7.164062 16-16 16-16-7.164062-16-16 7.164062-16 16-16zm0 0"/><path d="m64 56h48v16h-48zm0 0"/><path d="m400 56h48v16h-48zm0 0"/></svg>