<?xml version="1.0" encoding="iso-8859-1"?>
<!-- Generator: Adobe Illustrator 19.0.0, SVG Export Plug-In . SVG Version: 6.00 Build 0)  -->
<svg version="1.1" id="Capa_1" xmlns="http://www.w3.org/2000/svg" xmlns:xlink="http://www.w3.org/1999/xlink" x="0px" y="0px"
	 viewBox="0 0 496 496" style="enable-background:new 0 0 496 496;" xml:space="preserve">
<rect x="96" y="336" style="fill:#F0BC5E;" width="144" height="104"/>
<rect x="240" y="72" width="128" height="16"/>
<rect x="240" y="104" width="128" height="16"/>
<rect x="96" y="328" width="144" height="16"/>
<rect x="96" y="392" width="144" height="16"/>
<rect x="96" y="360" width="64" height="16"/>
<rect x="176" y="360" width="64" height="16"/>
<rect x="96" y="424" width="64" height="16"/>
<rect x="176" y="424" width="64" height="16"/>
<path d="M480,305.472V200c0-8.288-5.576-15.632-13.568-17.848L400,163.696V32H178.888c-0.456-0.504-0.856-1.048-1.344-1.536
	C167.2,20.112,152.36,16.448,138.68,20.304C131.696,7.888,118.624,0,104,0S76.304,7.888,69.328,20.296
	c-13.696-3.84-28.528-0.184-38.864,10.168C20.12,40.808,16.456,55.632,20.304,69.328C7.888,76.304,0,89.376,0,104
	s7.888,27.696,20.304,34.672c-3.848,13.704-0.184,28.52,10.16,38.864c5.008,5.008,11.064,8.456,17.536,10.24v109.312l16-13.336V496
	h235.32L400,395.312v-111.56l48-13.712v-47.064l16-4.448v86.952c-9.288,3.312-16,12.112-16,22.528v56h48v-56
	C496,317.584,489.288,308.784,480,305.472z M192,104c0,10.48-6.808,19.632-16.936,22.784l-3.184,0.992
	c2.624-7.456,4.12-15.44,4.12-23.776s-1.496-16.32-4.12-23.768l3.184,0.992C185.192,84.368,192,93.52,192,104z M64,262.92v-74.104
	c1.784-0.248,3.568-0.616,5.328-1.112C76.304,200.112,89.376,208,104,208s27.696-7.888,34.672-20.296
	c1.76,0.496,3.536,0.864,5.328,1.112v74.104l-40-33.336L64,262.92z M104,176c8.336,0,16.32-1.496,23.768-4.12l-0.992,3.184
	C123.632,185.192,114.48,192,104,192s-19.632-6.808-22.784-16.936l-0.992-3.184C87.68,174.504,95.664,176,104,176z M48,104
	c0-30.88,25.12-56,56-56s56,25.12,56,56s-25.12,56-56,56S48,134.88,48,104z M138.144,170.36l-2.968-1.56
	c14.664-7.08,26.536-18.96,33.624-33.624l1.56,2.968c4.936,9.384,3.28,20.672-4.136,28.08
	C158.824,173.632,147.536,175.296,138.144,170.36z M166.224,41.776c7.408,7.408,9.072,18.696,4.136,28.08l-1.56,2.968
	c-7.088-14.664-18.96-26.536-33.624-33.624l2.968-1.56C147.528,32.688,158.824,34.36,166.224,41.776z M104,16
	c10.48,0,19.632,6.808,22.784,16.936l0.992,3.184C120.32,33.496,112.336,32,104,32s-16.32,1.496-23.768,4.12l0.992-3.184
	C84.368,22.808,93.52,16,104,16z M41.776,41.776c7.408-7.408,18.696-9.08,28.08-4.136l2.968,1.56
	C58.16,46.288,46.288,58.16,39.2,72.824l-1.56-2.968C32.704,60.472,34.36,49.184,41.776,41.776z M16,104
	c0-10.48,6.808-19.632,16.936-22.784l3.184-0.992C33.496,87.68,32,95.664,32,104s1.496,16.32,4.12,23.768l-3.184-0.992
	C22.808,123.632,16,114.48,16,104z M41.776,166.224c-7.408-7.408-9.072-18.696-4.136-28.08l1.56-2.968
	c7.08,14.664,18.96,26.536,33.624,33.624l-2.968,1.56C60.464,175.288,49.176,173.632,41.776,166.224z M384,384h-96v80h16v-64h68.688
	l-80,80H80V270.416l24-20l56,46.664V187.776c6.472-1.784,12.528-5.224,17.536-10.232c10.344-10.344,14.008-25.168,10.16-38.864
	C200.112,131.696,208,118.624,208,104s-7.888-27.696-20.304-34.672c1.992-7.072,1.936-14.432,0.032-21.328H384v111.248l-56-15.56
	l-138.432,38.456C181.576,184.368,176,191.712,176,200s5.576,15.632,13.568,17.848l18.432,5.12v47.064l120,34.288l56-16V384z
	 M432,257.968L328,287.68l-104-29.712v-30.552l104,28.888l104-28.888V257.968z M462.152,202.432L328,239.696l-134.152-37.264
	C192.76,202.128,192,201.128,192,200s0.76-2.128,1.848-2.432L328,160.304l134.152,37.264C463.24,197.872,464,198.872,464,200
	S463.24,202.128,462.152,202.432z M480,368h-16v-40c0-4.408,3.592-8,8-8s8,3.592,8,8V368z"/>
<g>
	<circle style="fill:#F0BC5E;" cx="104" cy="104" r="40"/>
	<rect x="240" y="88" style="fill:#F0BC5E;" width="128" height="16"/>
</g>
<g>
</g>
<g>
</g>
<g>
</g>
<g>
</g>
<g>
</g>
<g>
</g>
<g>
</g>
<g>
</g>
<g>
</g>
<g>
</g>
<g>
</g>
<g>
</g>
<g>
</g>
<g>
</g>
<g>
</g>
</svg>
