<svg id="Capa_1" data-name="Capa 1" xmlns="http://www.w3.org/2000/svg" viewBox="0 0 792 752"><defs><style>.cls-1{fill:#4e819c;}.cls-2{fill:#674c5c;}.cls-3{fill:#022c42;}.cls-4{fill:#25455a;}.cls-5{fill:#3a2e3f;}.cls-6{fill:#85a4b6;}.cls-7{fill:#005668;}.cls-8{fill:#14363f;}.cls-9{fill:#196176;}.cls-10{fill:#893444;}.cls-11{fill:#021523;}.cls-12{fill:#24303b;}.cls-13{fill:#1c2335;}.cls-14{fill:#5b263a;}.cls-15{fill:#38192c;}.cls-16{fill:#003d4e;}.cls-17{fill:#030101;}.cls-18{fill:#36596d;}.cls-19{fill:#2a2d3b;}.cls-20{fill:#b2344c;}</style></defs><rect class="cls-1" width="160" height="188"/><rect class="cls-2" x="160" width="160" height="188"/><rect class="cls-3" x="320" width="160" height="188"/><rect class="cls-4" x="160" y="188" width="160" height="188"/><rect class="cls-5" y="188" width="160" height="188"/><rect class="cls-6" y="376" width="160" height="188"/><rect class="cls-7" y="564" width="160" height="188"/><rect class="cls-8" x="160" y="564" width="160" height="188"/><rect class="cls-9" x="320" y="564" width="160" height="188"/><rect class="cls-10" x="480" y="564" width="160" height="188"/><rect class="cls-11" x="636" y="564" width="156" height="188"/><rect class="cls-12" x="160" y="376" width="160" height="188"/><rect class="cls-13" x="320" y="376" width="160" height="188"/><rect class="cls-14" x="480" y="376" width="160" height="188"/><rect class="cls-15" x="640" y="376" width="152" height="188"/><rect class="cls-16" x="640" width="152" height="188"/><rect class="cls-17" x="480" width="160" height="188"/><rect class="cls-18" x="320" y="188" width="160" height="188"/><rect class="cls-19" x="480" y="188" width="160" height="188"/><rect class="cls-20" x="640" y="182" width="152" height="194"/></svg>