<svg id="Layer_1" enable-background="new 0 0 512 512" height="512" viewBox="0 0 512 512" width="512" xmlns="http://www.w3.org/2000/svg"><g><path d="m163.922 284.788c17.166-14.685 28.078-36.48 28.078-60.788 0-44.112-35.888-80-80-80s-80 35.888-80 80c0 24.308 10.912 46.103 28.078 60.788-35.682 18.75-60.078 56.183-60.078 99.212v96.421c0 6.887 4.407 13.001 10.94 15.179 32.646 10.882 66.648 16.4 101.06 16.4s68.414-5.518 101.06-16.399c6.534-2.178 10.94-8.292 10.94-15.179v-96.422c0-43.029-24.396-80.462-60.078-99.212zm-99.922-60.788c0-26.467 21.533-48 48-48s48 21.533 48 48-21.533 48-48 48-48-21.533-48-48zm128 244.644c-51.997 15.012-108.003 15.012-160 0v-84.644c0-44.112 35.888-80 80-80s80 35.888 80 80z"/><path d="m451.922 284.788c17.166-14.685 28.078-36.48 28.078-60.788 0-44.112-35.888-80-80-80s-80 35.888-80 80c0 24.308 10.912 46.103 28.078 60.788-35.682 18.75-60.078 56.183-60.078 99.212v96.421c0 6.887 4.407 13.001 10.94 15.179 32.646 10.882 66.648 16.4 101.06 16.4s68.414-5.518 101.06-16.399c6.534-2.178 10.94-8.292 10.94-15.179v-96.422c0-43.029-24.396-80.462-60.078-99.212zm-99.922-60.788c0-26.467 21.533-48 48-48s48 21.533 48 48-21.533 48-48 48-48-21.533-48-48zm128 244.644c-51.997 15.012-108.003 15.012-160 0v-84.644c0-44.112 35.888-80 80-80s80 35.888 80 80z"/><path d="m340.85 67.15c-4.096 0-8.191-1.563-11.316-4.689-19.635-19.643-45.749-30.461-73.534-30.461s-53.899 10.818-73.534 30.461c-6.248 6.25-16.378 6.252-22.627.005-6.25-6.247-6.252-16.378-.005-22.627 25.679-25.691 59.831-39.839 96.166-39.839s70.487 14.148 96.167 39.839c6.247 6.25 6.245 16.38-.005 22.627-3.124 3.122-7.219 4.684-11.312 4.684z"/><path d="m301.26 106.74c-4.095 0-8.189-1.562-11.314-4.687-9.062-9.062-21.118-14.053-33.946-14.053s-24.884 4.991-33.946 14.054c-6.248 6.248-16.379 6.249-22.627 0-6.249-6.248-6.249-16.379 0-22.627 15.106-15.107 35.197-23.427 56.573-23.427s41.467 8.32 56.574 23.427c6.248 6.249 6.248 16.379 0 22.627-3.125 3.124-7.22 4.686-11.314 4.686z"/><path d="m256 176c-13.233 0-24-10.767-24-24s10.767-24 24-24 24 10.767 24 24-10.767 24-24 24z"/></g></svg>