<svg id="Graphic_Design-Blueprint-Sketch-Flow_Chart-Tools" height="512" viewBox="0 0 64 64" width="512" xmlns="http://www.w3.org/2000/svg" data-name="Graphic Design-Blueprint-Sketch-Flow Chart-Tools"><path d="m49 29v-18a1.033 1.033 0 0 0 -.29-.71l-8-8a1.033 1.033 0 0 0 -.71-.29h-32a5 5 0 0 0 -5 5v50a5 5 0 0 0 5 5h36a5 5 0 0 0 5-5v-8h-2v8a3.009 3.009 0 0 1 -3 3h-36a3.009 3.009 0 0 1 -3-3v-50a3.009 3.009 0 0 1 3-3h31v5a3.009 3.009 0 0 0 3 3h5v17zm-7-19a1 1 0 0 1 -1-1v-3.59l4.59 4.59z"/><path d="m60.99 31.67-5.66-5.66a1 1 0 0 0 -1.41 0l-19.09 19.09a1.014 1.014 0 0 0 -.23.35l-3.53 9.19a.988.988 0 0 0 .22 1.07 1.007 1.007 0 0 0 .71.29.922.922 0 0 0 .36-.07l9.19-3.53a1.014 1.014 0 0 0 .35-.23l19.09-19.09a1 1 0 0 0 0-1.41zm-10.61.7 1.42 1.42-13.44 13.43-1.41-1.41zm-16.64 20.89.61-1.57.96.96zm3.61-1.39-2.22-2.22.79-2.05 3.48 3.48zm3.84-1.82-1.41-1.41 13.43-13.44 1.42 1.42zm14.85-14.85-4.24-4.24 2.83-2.83 4.24 4.24z"/><path d="m40 26h-2v-4a1 1 0 0 0 -1-1h-6.67l-3.33-2.5v-2.5h2a1 1 0 0 0 1-1v-4a1 1 0 0 0 -1-1h-6a1 1 0 0 0 -1 1v4a1 1 0 0 0 1 1h2v2.5l-3.33 2.5h-6.67a1 1 0 0 0 -1 1v4h-2a1 1 0 0 0 -1 1v4a1 1 0 0 0 1 1h2v5a1 1 0 0 0 1 1h7v1a1 1 0 0 0 1 1h6a1 1 0 0 0 1-1v-1h7a1 1 0 0 0 1-1v-5h2a1 1 0 0 0 1-1v-4a1 1 0 0 0 -1-1zm-16-12v-2h4v2zm2 6.25 2.33 1.75-2.33 1.75-2.33-1.75zm-13 9.75v-2h4v2zm9 5v1h-6v-4h2a1 1 0 0 0 1-1v-4a1 1 0 0 0 -1-1h-2v-3h5.67l3.33 2.5v8.5h-2a1 1 0 0 0 -1 1zm6 3h-4v-2h4zm8-2h-6v-1a1 1 0 0 0 -1-1h-2v-8.5l3.33-2.5h5.67v3h-2a1 1 0 0 0 -1 1v4a1 1 0 0 0 1 1h2zm3-6h-4v-2h4z"/><path d="m17 46h10v2h-10z"/><path d="m13 50h14v2h-14z"/><path d="m13 54h14v2h-14z"/><path d="m13 46h2v2h-2z"/></svg>